<svg version="1.1" xmlns="http://www.w3.org/2000/svg" viewBox="0 0 833.3372271388357 856.6060925058423" width="833.3372271388357" height="856.6060925058423">
  <!-- svg-source:excalidraw -->
  
  <defs>
    <style class="style-fonts">
      @font-face {
        font-family: "Virgil";
        src: url("https://excalidraw.com/Virgil.woff2");
      }
      @font-face {
        font-family: "Cascadia";
        src: url("https://excalidraw.com/Cascadia.woff2");
      }
      @font-face {
        font-family: "Assistant";
        src: url("https://excalidraw.com/Assistant-Regular.woff2");
      }
    </style>
    
  </defs>
  <rect x="0" y="0" width="833.3372271388357" height="856.6060925058423" fill="#ffffff"></rect><g stroke-linecap="round" transform="translate(37.3944829148802 549.1111089300302) rotate(0 338.65248706843033 61.87374589395313)"><path d="M30.94 0 C178.57 0.63, 327.46 0.4, 646.37 0 M30.94 0 C245.89 0.1, 460.77 -0.31, 646.37 0 M646.37 0 C666.72 1.52, 677.09 9.9, 677.3 30.94 M646.37 0 C665.07 -0.42, 679.18 9.66, 677.3 30.94 M677.3 30.94 C677.26 55.24, 678.22 80.21, 677.3 92.81 M677.3 30.94 C676.54 53.85, 677.64 75.12, 677.3 92.81 M677.3 92.81 C676.44 112.86, 667.39 125.61, 646.37 123.75 M677.3 92.81 C678.32 111.78, 667.21 125.16, 646.37 123.75 M646.37 123.75 C417.03 122.73, 189.65 122.7, 30.94 123.75 M646.37 123.75 C506.99 124.46, 367.64 124.39, 30.94 123.75 M30.94 123.75 C8.91 122.91, 1.75 112.74, 0 92.81 M30.94 123.75 C12.57 124.46, 0.79 113.73, 0 92.81 M0 92.81 C-1.72 73.23, 0.79 51.92, 0 30.94 M0 92.81 C0.89 71.4, 0 50.68, 0 30.94 M0 30.94 C1.16 8.34, 8.89 -1.26, 30.94 0 M0 30.94 C1.76 11.11, 12.35 2.24, 30.94 0" stroke="#1e1e1e" stroke-width="2" fill="none"></path></g><g transform="translate(245.20502052042002 588.4848548239834) rotate(0 130.84194946289062 22.5)"><text x="130.84194946289062" y="0" font-family="Virgil, Segoe UI Emoji" font-size="36px" fill="#1e1e1e" text-anchor="middle" style="white-space: pre;" direction="ltr" dominant-baseline="text-before-edge">LazyLinear(64)</text></g><g stroke-linecap="round" transform="translate(37.39448291487997 373.01755257722425) rotate(0 338.65248706843033 61.87374589395313)"><path d="M30.94 0 C236.86 -0.58, 442.1 0.2, 646.37 0 M30.94 0 C276.19 0.42, 521.51 0.04, 646.37 0 M646.37 0 C665.32 -0.37, 678.93 9.74, 677.3 30.94 M646.37 0 C669.24 0.62, 675.08 10.06, 677.3 30.94 M677.3 30.94 C678.82 48.87, 678.53 64.39, 677.3 92.81 M677.3 30.94 C677.02 51.64, 677.65 73.86, 677.3 92.81 M677.3 92.81 C678.18 112, 667.18 124.97, 646.37 123.75 M677.3 92.81 C678.95 113.24, 666.61 121.58, 646.37 123.75 M646.37 123.75 C508.13 122.35, 371.26 121.64, 30.94 123.75 M646.37 123.75 C439.59 123.99, 233.72 124.01, 30.94 123.75 M30.94 123.75 C12.28 124.37, 0.69 113.69, 0 92.81 M30.94 123.75 C10.71 123.86, 0.96 111.49, 0 92.81 M0 92.81 C0.58 73.24, -1.96 56.59, 0 30.94 M0 92.81 C0.74 74.97, -0.55 58.47, 0 30.94 M0 30.94 C1.53 11.01, 12.09 1.95, 30.94 0 M0 30.94 C1.8 10.1, 8.16 -1.85, 30.94 0" stroke="#1e1e1e" stroke-width="2" fill="none"></path></g><g transform="translate(280.52100715372035 412.3912984711774) rotate(0 95.52596282958984 22.5)"><text x="95.52596282958984" y="0" font-family="Virgil, Segoe UI Emoji" font-size="36px" fill="#1e1e1e" text-anchor="middle" style="white-space: pre;" direction="ltr" dominant-baseline="text-before-edge">LeakyReLU</text></g><g stroke-linecap="round" transform="translate(37.39448291487997 159.80632660007768) rotate(0 338.65248706843033 61.87374589395313)"><path d="M30.94 0 C181.8 -0.5, 331.05 -1.15, 646.37 0 M30.94 0 C262.12 0.43, 494.29 0.39, 646.37 0 M646.37 0 C668.95 0.54, 675.37 10.1, 677.3 30.94 M646.37 0 C666.64 0.86, 677.36 11.78, 677.3 30.94 M677.3 30.94 C678.4 51.01, 675.9 69.28, 677.3 92.81 M677.3 30.94 C677.87 47, 677.52 65.11, 677.3 92.81 M677.3 92.81 C678.73 113.26, 666.66 121.86, 646.37 123.75 M677.3 92.81 C675.55 114.69, 665.14 122.05, 646.37 123.75 M646.37 123.75 C417.24 123.18, 187.67 122.79, 30.94 123.75 M646.37 123.75 C487.97 123.01, 328.92 122.94, 30.94 123.75 M30.94 123.75 C10.66 123.84, 0.84 111.74, 0 92.81 M30.94 123.75 C10.38 124.69, -1.87 114.39, 0 92.81 M0 92.81 C-0.03 76.32, 0.8 62.03, 0 30.94 M0 92.81 C1.2 80.69, 1.33 68.85, 0 30.94 M0 30.94 C1.56 10.13, 8.44 -1.61, 30.94 0 M0 30.94 C0.23 10.33, 10.85 0.94, 30.94 0" stroke="#1e1e1e" stroke-width="2" fill="none"></path></g><g transform="translate(263.3670154545016 199.1800724940308) rotate(0 112.6799545288086 22.5)"><text x="112.6799545288086" y="0" font-family="Virgil, Segoe UI Emoji" font-size="36px" fill="#1e1e1e" text-anchor="middle" style="white-space: pre;" direction="ltr" dominant-baseline="text-before-edge">LazyLinear(1)</text></g><g stroke-linecap="round" transform="translate(10 328.34278421774343) rotate(0 366.0469699833104 194.59529242983717)"><path d="M32 0 C278.08 0.28, 522.77 -0.3, 700.09 0 M700.09 0 C721.06 1.63, 731.52 12.62, 732.09 32 M732.09 32 C729.71 138.86, 729.95 245.57, 732.09 357.19 M732.09 357.19 C732.43 379.52, 719.68 389.98, 700.09 389.19 M700.09 389.19 C483.81 388.19, 268.72 388.39, 32 389.19 M32 389.19 C9.23 389.38, 1.23 379.95, 0 357.19 M0 357.19 C-0.68 263.16, -0.74 166.6, 0 32 M0 32 C1.46 11.13, 10.35 0.71, 32 0" stroke="#2f9e44" stroke-width="2.5" fill="none" stroke-dasharray="8 10"></path></g><g stroke-linecap="round"><g transform="translate(355.73726713262363 547.4986475367832) rotate(0 0 -25.97752690204129)"><path d="M-0.13 -0.24 C-0.27 -9.09, -1.19 -43.5, -1.01 -52.18 M-1.66 -1.42 C-1.42 -10.16, 0.78 -42.47, 1.18 -50.76" stroke="#1e1e1e" stroke-width="2" fill="none"></path></g><g transform="translate(355.73726713262363 547.4986475367832) rotate(0 0 -25.97752690204129)"><path d="M8.34 -26.8 C5.7 -35.34, 3.69 -38.9, 1.18 -50.76 M8.34 -26.8 C5.19 -33.39, 4.06 -39.41, 1.18 -50.76" stroke="#1e1e1e" stroke-width="2" fill="none"></path></g><g transform="translate(355.73726713262363 547.4986475367832) rotate(0 0 -25.97752690204129)"><path d="M-8.73 -27.8 C-6.48 -36.04, -3.6 -39.31, 1.18 -50.76 M-8.73 -27.8 C-7.23 -34.17, -3.73 -39.92, 1.18 -50.76" stroke="#1e1e1e" stroke-width="2" fill="none"></path></g></g><mask></mask><g stroke-linecap="round"><g transform="translate(350.0694430812691 369.9068272610093) rotate(0 -1.416956012838682 -43.925636397997096)"><path d="M-1.01 -0.22 C-1.29 -14.88, -1.75 -73.64, -1.86 -88.19 M0.67 -1.38 C0.32 -15.85, -1.88 -72.73, -2.29 -86.84" stroke="#1e1e1e" stroke-width="2" fill="none"></path></g><g transform="translate(350.0694430812691 369.9068272610093) rotate(0 -1.416956012838682 -43.925636397997096)"><path d="M7.06 -63.65 C4.03 -68.81, 1.13 -75.18, -2.29 -86.84 M7.06 -63.65 C4.07 -70.87, 1.19 -78.19, -2.29 -86.84" stroke="#1e1e1e" stroke-width="2" fill="none"></path></g><g transform="translate(350.0694430812691 369.9068272610093) rotate(0 -1.416956012838682 -43.925636397997096)"><path d="M-10.03 -63.06 C-8.11 -68.25, -6.08 -74.79, -2.29 -86.84 M-10.03 -63.06 C-7.43 -70.46, -4.72 -77.96, -2.29 -86.84" stroke="#1e1e1e" stroke-width="2" fill="none"></path></g></g><mask></mask><g stroke-linecap="round"><g transform="translate(362.34972852587043 779.879433642317) rotate(0 -1.4169560128385683 -51.48273513313643)"><path d="M0.98 -0.34 C0.87 -17.41, -0.83 -85.52, -1.66 -102.64 M0.03 -1.57 C-0.05 -19, -1.7 -87.88, -1.99 -104.59" stroke="#1e1e1e" stroke-width="2" fill="none"></path></g><g transform="translate(362.34972852587043 779.879433642317) rotate(0 -1.4169560128385683 -51.48273513313643)"><path d="M7.05 -81.29 C4.57 -84.29, 3.72 -93.22, -1.99 -104.59 M7.05 -81.29 C4.49 -87.35, 2.02 -94.24, -1.99 -104.59" stroke="#1e1e1e" stroke-width="2" fill="none"></path></g><g transform="translate(362.34972852587043 779.879433642317) rotate(0 -1.4169560128385683 -51.48273513313643)"><path d="M-10.05 -80.93 C-8.83 -84.15, -5.98 -93.16, -1.99 -104.59 M-10.05 -80.93 C-7.66 -87.16, -5.18 -94.15, -1.99 -104.59" stroke="#1e1e1e" stroke-width="2" fill="none"></path></g></g><mask></mask><g transform="translate(266.9413569947367 801.6060925058423) rotate(0 95.03997039794922 22.5)"><text x="0" y="0" font-family="Virgil, Segoe UI Emoji" font-size="36px" fill="#1e1e1e" text-anchor="start" style="white-space: pre;" direction="ltr" dominant-baseline="text-before-edge">input data</text></g><g stroke-linecap="round"><g transform="translate(344.4016190299146 159.25270001900117) rotate(0 -0.47231867094626523 -48.64882310745929)"><path d="M-1.16 -0.13 C-1.54 -16.32, -1.17 -80.78, -1.13 -96.85 M0.43 -1.24 C-0.23 -17.83, -1.83 -82.53, -2.18 -98.74" stroke="#1e1e1e" stroke-width="2" fill="none"></path></g><g transform="translate(344.4016190299146 159.25270001900117) rotate(0 -0.47231867094626523 -48.64882310745929)"><path d="M6.93 -75.45 C3.03 -85.11, 0.37 -94.02, -2.18 -98.74 M6.93 -75.45 C2.7 -83.49, 0.49 -93.21, -2.18 -98.74" stroke="#1e1e1e" stroke-width="2" fill="none"></path></g><g transform="translate(344.4016190299146 159.25270001900117) rotate(0 -0.47231867094626523 -48.64882310745929)"><path d="M-10.17 -75.05 C-7.27 -84.71, -3.13 -93.77, -2.18 -98.74 M-10.17 -75.05 C-8.17 -83.32, -4.16 -93.19, -2.18 -98.74" stroke="#1e1e1e" stroke-width="2" fill="none"></path></g></g><mask></mask><g transform="translate(272.6091810460912 10) rotate(0 72.17997741699219 22.5)"><text x="0" y="0" font-family="Virgil, Segoe UI Emoji" font-size="36px" fill="#1e1e1e" text-anchor="start" style="white-space: pre;" direction="ltr" dominant-baseline="text-before-edge">softmax</text></g><g transform="translate(764.7652361720388 504.04532980973227) rotate(0 29.285995483398438 22.5)"><text x="0" y="0" font-family="Virgil, Segoe UI Emoji" font-size="36px" fill="#2f9e44" text-anchor="start" style="white-space: pre;" direction="ltr" dominant-baseline="text-before-edge">× 3</text></g></svg>